<?xml version="1.0" encoding="utf-8"?>
<svg version="1.1" id="Layer_1" xmlns="http://www.w3.org/2000/svg" xmlns:xlink="http://www.w3.org/1999/xlink" x="0px" y="0px"
	 viewBox="0 0 256 256" style="enable-background:new 0 0 256 256;" xml:space="preserve">
<style type="text/css">
	.st0{fill:#FFFFFF;stroke:#000000;stroke-width:2;stroke-miterlimit:10;}
</style>
<title>logo</title>
<g id="layer4">
	<path id="path4236" class="st0" d="M128,2C58.4,2,2,58.4,2,128s56.4,126,126,126s126-56.4,126-126l0,0C253.9,58.5,197.5,2.1,128,2z
		 M128,21.2c59,0,106.8,47.8,106.8,106.7c0,48.2-32.3,90.5-78.8,103.1l0.3-48.8c23.4-12.6,42-30,42-67.6c0-42.4-30-59.9-42.3-63.5
		v69.4h-55.3l0.1-69.2C83,57.2,58.2,75.6,58.6,117c0.3,40.9,22.2,53.1,41.9,65.7l0.3,48.6c-57.1-14.9-91.3-73.2-76.4-130.2
		C36.7,54,79.3,21.1,128,21.2z"/>
</g>
</svg>
