<svg id="Layer_1" data-name="Layer 1" xmlns="http://www.w3.org/2000/svg" xmlns:xlink="http://www.w3.org/1999/xlink" viewBox="0 0 256 256"><defs><style>.cls-1{fill:url(#radial-gradient);}.cls-2{fill:#fff;stroke:#000;stroke-miterlimit:10;stroke-width:2px;}</style><radialGradient id="radial-gradient" cx="128" cy="130" r="128" gradientTransform="matrix(1, 0, 0, -1, 0, 258)" gradientUnits="userSpaceOnUse"><stop offset="0" stop-color="#5a5b5d"/><stop offset="1"/></radialGradient></defs><title>logo</title><rect class="cls-1" width="256" height="256"/><g id="layer4"><path id="path4236" class="cls-2" d="M128,54.1A73.9,73.9,0,1,0,201.9,128,74,74,0,0,0,128,54.1Zm0,11.29a62.62,62.62,0,0,1,16.39,123.06l.15-28.63c13.72-7.39,24.65-17.59,24.64-39.65,0-24.87-17.61-35.11-24.81-37.27l0,40.68-32.44,0L112,83c-10.4,3.5-24.91,14.29-24.72,38.56.19,24,13,31.16,24.59,38.56l.2,28.51A62.63,62.63,0,0,1,128,65.39Z"/></g></svg>